<?xml version="1.0" encoding="iso-8859-1"?>
<!-- Generator: Adobe Illustrator 21.0.0, SVG Export Plug-In . SVG Version: 6.00 Build 0)  -->
<svg version="1.1" id="Layer_1" xmlns="http://www.w3.org/2000/svg" xmlns:xlink="http://www.w3.org/1999/xlink" x="0px" y="0px"
	 viewBox="0 0 151.619 56.841" style="enable-background:new 0 0 151.619 56.841;" xml:space="preserve">
<g>
	<g style="opacity:0.3;">
		<path style="fill:#231F20;" d="M26.147,3.553c-0.27-0.308-0.785-0.453-1.157-0.824c-0.481-0.481-1.237-1.548-1.943-1.92
			c-0.555-0.293-1.316-0.001-1.84,0.255C20.89,1.218,20.6,1.415,20.351,1.655c-0.395,0.381-0.688,0.869-0.829,1.464
			c-0.057,0.24-0.127,0.563-0.208,0.958c-0.972,4.738-3.533,19.723-4.113,23.153c-0.664,3.927-3.65,21.072-4.535,22.455
			c-0.885,1.383-1.272,2.434-1.438,3.54c-0.114,0.76,0.347,1.076,0.807,1.361c0.21,0.13,0.42,0.253,0.575,0.409
			c0.498,0.498,0.442,1.383,0.719,1.715c0.108,0.129,0.258,0.124,0.427,0.02c0.106-0.065,0.22-0.17,0.336-0.304
			c0.233-0.27,0.415-0.567,0.56-0.882c0.194-0.42,0.32-0.872,0.41-1.332c0.163-0.837,0.224-1.685,0.324-2.53
			c0.224-1.894,2.008-9.188,3.473-17.759c1.493-8.738,2.655-11.946,3.429-14.878c0.774-2.931,2.212-7.411,2.931-9.126
			c0.719-1.715,2.71-4.369,3.042-5.475C26.392,4.012,26.32,3.749,26.147,3.553z"/>
		<path style="fill:#231F20;" d="M1.541,54.662c0.25-0.143,0.599-0.228,1.002-0.282c0.5-0.067,1.014-0.106,1.529-0.131
			c0.589-0.029,1.18-0.04,1.755-0.054c1.118-0.026,2.044,0.17,2.633,0.025c0.254-0.063,0.354-0.197,0.372-0.382
			c0.029-0.303-0.164-0.741-0.267-1.222c-0.056-0.262-0.087-0.708-0.099-1.354c-0.023-1.264,0.026-3.296,0.099-6.223
			c0.111-4.425,2.102-13.661,3.706-20.851c1.604-7.19,3.429-11.227,4.093-13.937c0.664-2.71,1.77-4.037,1.936-4.646
			c0.166-0.608-0.94-1.604,0.111-2.486c0.076-0.064,0.146-0.127,0.211-0.188c0.825-0.789,0.734-1.383,0.785-1.64
			c0.037-0.183-0.67-0.492-1.415-0.761c-0.375-0.135-0.761-0.26-1.067-0.353c-0.268-0.081-0.474-0.138-0.559-0.156
			c-0.598-0.124-1.52,0.295-1.563,0.939c-0.042,0.623,0.353,1.191,0.349,1.807c-0.004,0.618-0.536,2.15-2.161,6.764
			c-1.715,4.867-5.088,18.86-6.526,26.215C5.05,42.975,2.836,49.348,1.71,50.617c-0.02,0.023-0.04,0.043-0.059,0.063
			c-1.106,1.106-1.327,2.323-1.604,3.042C-0.229,54.441,0.766,55.105,1.541,54.662z"/>
	</g>
	<g style="opacity:0.3;">
		<path style="fill:#231F20;" d="M125.472,3.588c0.27-0.308,0.785-0.453,1.157-0.824c0.481-0.481,1.237-1.548,1.943-1.92
			c0.555-0.293,1.316-0.001,1.84,0.255c0.318,0.155,0.607,0.352,0.856,0.592c0.395,0.381,0.688,0.869,0.829,1.464
			c0.057,0.24,0.127,0.563,0.208,0.958c0.971,4.738,3.533,19.723,4.113,23.153c0.664,3.927,3.65,21.072,4.535,22.455
			c0.885,1.383,1.272,2.434,1.438,3.54c0.114,0.76-0.347,1.076-0.807,1.361c-0.21,0.13-0.42,0.253-0.575,0.409
			c-0.498,0.498-0.442,1.383-0.719,1.715c-0.108,0.129-0.258,0.124-0.427,0.02c-0.106-0.065-0.22-0.17-0.336-0.304
			c-0.233-0.27-0.415-0.567-0.56-0.882c-0.194-0.42-0.32-0.872-0.41-1.332c-0.163-0.837-0.224-1.685-0.324-2.53
			c-0.224-1.894-2.008-9.188-3.473-17.759c-1.493-8.738-2.655-11.946-3.429-14.878c-0.774-2.931-2.212-7.411-2.931-9.126
			c-0.719-1.715-2.71-4.369-3.042-5.475C125.227,4.048,125.299,3.785,125.472,3.588z"/>
		<path style="fill:#231F20;" d="M150.079,54.697c-0.25-0.143-0.599-0.228-1.002-0.282c-0.5-0.067-1.014-0.106-1.529-0.131
			c-0.589-0.029-1.18-0.04-1.755-0.054c-1.118-0.026-2.044,0.17-2.633,0.025c-0.254-0.063-0.354-0.197-0.372-0.382
			c-0.029-0.303,0.164-0.741,0.267-1.222c0.056-0.262,0.087-0.708,0.099-1.354c0.023-1.264-0.026-3.296-0.099-6.223
			c-0.111-4.425-2.102-13.661-3.706-20.851c-1.604-7.19-3.429-11.227-4.093-13.937c-0.664-2.71-1.77-4.037-1.936-4.646
			c-0.166-0.608,0.94-1.604-0.111-2.486c-0.076-0.064-0.146-0.127-0.211-0.188c-0.825-0.789-0.734-1.383-0.785-1.64
			c-0.037-0.183,0.67-0.492,1.415-0.761c0.375-0.135,0.761-0.26,1.067-0.353c0.268-0.081,0.474-0.138,0.559-0.156
			c0.598-0.124,1.52,0.295,1.563,0.939c0.042,0.623-0.353,1.191-0.349,1.807c0.004,0.618,0.536,2.15,2.161,6.764
			c1.715,4.867,5.088,18.86,6.526,26.215c1.413,7.228,3.627,13.601,4.753,14.87c0.02,0.023,0.04,0.043,0.059,0.063
			c1.106,1.106,1.327,2.323,1.604,3.042C151.848,54.476,150.853,55.14,150.079,54.697z"/>
	</g>
</g>
</svg>
