<?xml version="1.0" encoding="utf-8"?>
<!-- Generator: Adobe Illustrator 19.2.0, SVG Export Plug-In . SVG Version: 6.00 Build 0)  -->
<svg version="1.1" id="Layer_1" xmlns="http://www.w3.org/2000/svg" xmlns:xlink="http://www.w3.org/1999/xlink" x="0px" y="0px"
	 viewBox="0 0 1366 768" style="enable-background:new 0 0 1366 768;" xml:space="preserve">
<style type="text/css">
	.st0{fill:url(#SVGID_1_);}
	.st1{fill:url(#SVGID_2_);}
	.st2{fill:url(#SVGID_3_);}
	.st3{fill:url(#SVGID_4_);}
	.st4{fill:url(#SVGID_5_);}
	.st5{fill:url(#SVGID_6_);}
	.st6{fill:url(#SVGID_7_);}
</style>
<g>
	
		<radialGradient id="SVGID_1_" cx="295.8347" cy="288.2799" r="19.1511" gradientTransform="matrix(0.8134 0.5817 -1.7315 2.4211 557.0112 -581.2646)" gradientUnits="userSpaceOnUse">
		<stop  offset="1.062786e-02" style="stop-color:#AE3A2E"/>
		<stop  offset="0.5111" style="stop-color:#852D24"/>
		<stop  offset="0.6657" style="stop-color:#BE6158"/>
		<stop  offset="0.9803" style="stop-color:#FFFFFF"/>
	</radialGradient>
	<path class="st0" d="M310.9,265.5c1.1,7-8.7,23.4-14.6,30.8c-5.9,7.4-13.9,19.9-15.9,24.3c-2,4.4-7.8,16.5-9,21
		c-1.2,4.5-2.5,3.4-3,1.5s2.8-10.7,6.7-17.4c3.9-6.8,7.8-17.4,9.2-21.9C285.6,299.2,309.9,259.1,310.9,265.5z"/>
	<radialGradient id="SVGID_2_" cx="282.8333" cy="345.6667" r="40.8592" gradientUnits="userSpaceOnUse">
		<stop  offset="1.062786e-02" style="stop-color:#AE3A2E"/>
		<stop  offset="0.5111" style="stop-color:#852D24"/>
		<stop  offset="0.6657" style="stop-color:#BE6158"/>
		<stop  offset="0.9803" style="stop-color:#FFFFFF"/>
	</radialGradient>
	<path class="st1" d="M264.7,348c-1.3,11.1-5.8,17.4-5.6,24.2s-1.5,10-2,11.8s15.4,3.9,16.1,5.6s6.2,3.5,5.5,0s1.1-14.7,3.1-22.3
		s9.4-15.7,5.8-20.1S265.8,339,264.7,348z"/>
	
		<radialGradient id="SVGID_3_" cx="308.3133" cy="245.5518" r="44.0737" gradientTransform="matrix(0.9569 0.2903 -0.3808 1.2555 106.7872 -152.2287)" gradientUnits="userSpaceOnUse">
		<stop  offset="1.062786e-02" style="stop-color:#AE3A2E"/>
		<stop  offset="0.5111" style="stop-color:#852D24"/>
		<stop  offset="0.6657" style="stop-color:#BE6158"/>
		<stop  offset="0.9803" style="stop-color:#FFFFFF"/>
	</radialGradient>
	<path class="st2" d="M321,189.2c-0.7,5.3-5.1,20.6-7.1,24.5c-1.9,3.9-2.3,3.2-0.8-1.7s2.1-11.9,1.9-16.6s-5.6,12.1-10.1,18
		s-10.1,17.5-13.1,26.2s-1.9,33.2-2.5,39.4s-3,17.9-3.6,23s1.6-4.5,7-12s17.1-17.8,20.6-23.5s11.2-20,12.4-27.1s-2.4-24.6,0-30.8
		s6.8-17.9,5.1-19.5S321.4,186.4,321,189.2z"/>
	<radialGradient id="SVGID_4_" cx="292" cy="330" r="50.5006" gradientUnits="userSpaceOnUse">
		<stop  offset="1.062786e-02" style="stop-color:#AE3A2E"/>
		<stop  offset="0.5111" style="stop-color:#852D24"/>
		<stop  offset="0.6657" style="stop-color:#BE6158"/>
		<stop  offset="0.9803" style="stop-color:#FFFFFF"/>
	</radialGradient>
	<path class="st3" d="M269.9,385.4c5.7-9.2,7-19.4,13.1-28.2s20.9-39.4,23.2-50.5s5.6-18.5,4-19.7s-18.4,28.6-23.7,42.8
		c-5.3,14.1-8.2,20.2-10,30.9S269.2,386.4,269.9,385.4z"/>
	
		<radialGradient id="SVGID_5_" cx="297.4287" cy="328.4207" r="12.4011" gradientTransform="matrix(0.9325 0.3611 -1.3085 3.3788 449.8169 -888.6602)" gradientUnits="userSpaceOnUse">
		<stop  offset="1.062786e-02" style="stop-color:#AE3A2E"/>
		<stop  offset="0.5111" style="stop-color:#852D24"/>
		<stop  offset="0.6657" style="stop-color:#BE6158"/>
		<stop  offset="0.9803" style="stop-color:#FFFFFF"/>
	</radialGradient>
	<path class="st4" d="M306.4,303.6c2.1,6.8-5.2,24.4-10,32.6c-4.8,8.2-10.9,21.7-12.2,26.3s-5.4,17.4-5.9,22s-2,3.8-2.8,1.9
		s1.2-11,4.1-18.2s5.2-18.4,5.9-23C286.2,340.6,304.5,297.4,306.4,303.6z"/>
	
		<radialGradient id="SVGID_6_" cx="279.5" cy="288" r="66.7879" gradientTransform="matrix(-0.2134 0.977 -0.2458 -5.367681e-02 409.9203 30.3949)" gradientUnits="userSpaceOnUse">
		<stop  offset="1.062786e-02" style="stop-color:#AE3A2E"/>
		<stop  offset="0.5111" style="stop-color:#852D24"/>
		<stop  offset="0.6657" style="stop-color:#BE6158"/>
		<stop  offset="0.9803" style="stop-color:#FFFFFF"/>
	</radialGradient>
	<path class="st5" d="M289.8,254.8c-10.6,13.8-13.8,24.1-16.3,31.2s-4.8,12.2-6,20.7s-2.1,26.3-2.2,37.4s1.9,13.1-1.5,20.2
		s-6.4,12.4-5.8,12.8s2.1-3.4,5-8.2s5.9-13.8,7.2-21.7s8.9-32.5,12.9-41.4s7.1-22.4,6.1-26.8s-1.1-10.1-0.4-12.5s0.7-2.3,0.7-3.4
		S289.7,257.2,289.8,254.8z"/>
	
		<radialGradient id="SVGID_7_" cx="289.5" cy="309.5" r="58.4818" gradientTransform="matrix(-0.4213 0.9069 -0.2602 -0.1209 492.0153 84.3695)" gradientUnits="userSpaceOnUse">
		<stop  offset="1.062786e-02" style="stop-color:#AE3A2E"/>
		<stop  offset="0.5111" style="stop-color:#852D24"/>
		<stop  offset="0.6657" style="stop-color:#BE6158"/>
		<stop  offset="0.9803" style="stop-color:#FFFFFF"/>
	</radialGradient>
	<path class="st6" d="M308.3,280.6c-5.3,0.7-20,14.1-22.8,19.1c-2.8,5-15.7,40.7-17.9,58.1c-2.1,17.4-4.9,24.2-4.8,28
		s2.8-12.2,6.1-21.1s9.8-16.4,15-25.4s20.5-41.1,22-45.5S313.1,280,308.3,280.6z"/>
</g>
</svg>
