<?xml version="1.0" encoding="iso-8859-1"?>
<!-- Generator: Adobe Illustrator 21.0.0, SVG Export Plug-In . SVG Version: 6.00 Build 0)  -->
<svg version="1.1" id="Layer_1" xmlns="http://www.w3.org/2000/svg" xmlns:xlink="http://www.w3.org/1999/xlink" x="0px" y="0px"
	 viewBox="0 0 167.125 29.953" style="enable-background:new 0 0 167.125 29.953;" xml:space="preserve">
<g>
	<g style="opacity:0.3;">
		<path style="fill:#231F20;" d="M12.856,1.375c-0.05,0.085-0.078,0.164-0.078,0.237c0,0.23,0.462,0.383,0.858,0.522
			c0.147,0.052,0.298,0.106,0.433,0.177c0.35,0.183,0.624,0.154,1.004-0.386c0.151-0.214,0.343-0.4,0.541-0.557
			c0.317-0.252,1.328-0.594,0.89-1.04c-0.102-0.104-0.277-0.195-0.546-0.244c-0.356-0.066-0.743-0.096-1.089-0.079
			c-0.115,0.006-0.225,0.017-0.328,0.033c-0.259,0.042-0.474,0.119-0.602,0.239c-0.102,0.095-0.201,0.186-0.297,0.273
			C13.29,0.873,12.992,1.146,12.856,1.375z"/>
		<path style="fill:#231F20;" d="M18.927,3.021c0.022-0.109,0.041-0.224,0.046-0.338c0.032-0.82-0.735-0.744-1.517-0.757
			c0.016-0.076-0.008-0.159-0.058-0.239c-0.085-0.135-0.247-0.261-0.426-0.33c-0.117-0.045-0.241-0.064-0.356-0.046
			c-0.351,0.058-1.035,0.627-1.301,1.09c-0.043,0.075-0.049,0.148-0.027,0.218c0.118,0.375,1.026,0.684,1.328,0.908
			c0.144,0.107,0.315,0.234,0.497,0.358c0.278,0.189,0.584,0.372,0.86,0.467c0.163,0.056,0.315,0.081,0.446,0.058
			C18.982,4.313,18.859,3.351,18.927,3.021z"/>
		<path style="fill:#231F20;" d="M12.385,0.036c-0.833-0.031-1.85,0.039-2.556,0.417C9.404,0.68,9.299,0.947,9.072,1.206
			c-0.136,0.156-0.29,0.203-0.427,0.258C8.277,1.612,8.227,1.822,8.329,2.027C8.437,2.245,8.716,2.458,8.962,2.58
			c0.195,0.097,0.544,0.25,0.864,0.335c0.662,0.178,0.717-0.184,1.091-0.519c0.217-0.195,0.507-0.419,0.859-0.676
			c0.142-0.104,0.431-0.269,0.719-0.461c0.269-0.18,0.538-0.385,0.684-0.586c0.111-0.152,0.151-0.303,0.07-0.439
			C13.179,0.117,12.833,0.052,12.385,0.036z"/>
		<path style="fill:#231F20;" d="M11.865,5.766c0.19,0.064,0.406,0.115,0.62,0.151c0.248,0.041,0.496,0.062,0.704,0.06
			c0.213-0.002,0.385-0.029,0.473-0.082c0.229-0.138,0.224-0.495,0.243-1.052c0.02-0.594,0.327-1.077,0.566-1.628
			c0.165-0.379-0.244-0.507-0.643-0.592c-0.234-0.05-0.553-0.237-0.923-0.352c-0.374-0.116-0.684-0.054-0.914,0.109
			c-0.199,0.141-0.337,0.358-0.403,0.6c-0.072,0.265-0.084,0.631-0.122,0.972c-0.035,0.313-0.092,0.605-0.237,0.78
			c-0.108,0.13-0.139,0.27-0.107,0.407C11.182,5.389,11.455,5.627,11.865,5.766z"/>
		<path style="fill:#231F20;" d="M14.382,5.977c0.179,0.025,0.603,0.083,1.082,0.144c0.438,0.056,1.001,0.2,1.433,0.061
			c0.254-0.082,0.385-0.246,0.56-0.394c0.281-0.237,0.521-0.215,0.88-0.452c0.238-0.157,0.265-0.294,0.182-0.413
			c-0.099-0.141-0.353-0.257-0.595-0.351c-0.188-0.073-0.368-0.132-0.463-0.179c-0.403-0.201-0.739-0.476-1.095-0.726
			c-0.237-0.167-0.482-0.323-0.761-0.438c-0.246-0.102-0.485-0.145-0.67-0.066c-0.334,0.142-0.445,0.502-0.503,0.855
			c-0.065,0.395-0.154,0.755-0.267,1.143C14.061,5.52,14.014,5.925,14.382,5.977z"/>
		<path style="fill:#231F20;" d="M9.317,4.711C9.44,4.822,9.632,4.926,9.851,5.005c0.147,0.052,0.306,0.093,0.465,0.116
			c0.312,0.044,0.545-0.141,0.69-0.376c0.119-0.192,0.179-0.418,0.174-0.579C11.174,3.93,10.952,3.77,10.78,3.657
			c-0.06-0.039-0.124-0.085-0.195-0.129c-0.106-0.065-0.225-0.123-0.361-0.143c-0.121-0.018-0.255-0.007-0.405,0.057
			c-0.053,0.022-0.13,0.105-0.213,0.216C9.529,3.761,9.447,3.889,9.375,4.015C9.287,4.168,9.214,4.319,9.183,4.418
			C9.154,4.511,9.209,4.613,9.317,4.711z"/>
		<path style="fill:#231F20;" d="M3.016,7.079C3.514,6.997,3.963,7.244,4.361,7.38c0.388,0.132,0.481-0.095,0.556-0.345
			c0.105-0.348,0.263-0.537,0.587-0.802c0.629-0.516,1.203-1.014,2.014-1.361c0.25-0.107,0.504-0.202,0.74-0.306
			C8.816,4.322,9.27,4.029,9.308,3.428c0.007-0.112,0.005-0.217,0.014-0.307c0.046-0.5-1.098-0.736-1.562-0.712
			C7.249,2.435,6.8,2.827,6.3,3.35c-0.31,0.325-0.64,0.7-1.016,1.068C5.109,4.589,4.927,4.78,4.744,4.975
			c-0.572,0.608-1.15,1.247-1.506,1.394c-0.155,0.064-0.289,0.172-0.38,0.286C2.672,6.885,2.664,7.137,3.016,7.079z"/>
		<path style="fill:#231F20;" d="M1.329,12.481c0.182,0.103,0.485,0.167,0.774,0.162c0.142-0.002,0.282-0.022,0.401-0.061
			c0.163-0.054,0.29-0.145,0.34-0.282c0.097-0.269,0.121-0.539,0.121-0.808c0.001-0.658-0.134-1.311,0.338-1.938
			c0.369-0.489,0.856-0.9,0.962-1.389c0.049-0.224,0.017-0.465-0.143-0.737C4.063,7.327,3.75,7.234,3.428,7.193
			C3.192,7.162,2.951,7.16,2.803,7.202C2.431,7.308,2.229,7.706,2.214,7.983C2.208,8.1,2.169,8.293,2.11,8.526
			c-0.201,0.794-0.631,2.056-0.781,2.405c-0.104,0.242-0.183,0.62-0.189,0.945C1.136,12.159,1.188,12.401,1.329,12.481z"/>
		<path style="fill:#231F20;" d="M1.659,15.217c0.231-0.251,0.255-0.532,0.258-0.777c0.005-0.466,0.214-0.827,0.46-1.246
			c0.103-0.176,0.186-0.323,0.197-0.389c0.026-0.165-0.48-0.014-0.741-0.001c-0.137,0.007-0.312-0.07-0.42-0.114
			c-0.201-0.082-0.394-0.16-0.442-0.062c-0.087,0.176-0.121,0.377-0.138,0.584c-0.047,0.559-0.075,0.982-0.461,1.474
			c-0.199,0.254-0.393,0.507-0.369,0.767c0.019,0.206,0.161,0.284,0.356,0.289c0.139,0.003,0.306-0.033,0.473-0.087
			C1.195,15.533,1.562,15.322,1.659,15.217z"/>
		<path style="fill:#231F20;" d="M8.807,5.162C8.376,5.26,8.164,5.637,8.054,5.943c-0.1,0.278-0.155,0.606-0.212,0.99
			c-0.211,1.401-0.675,2.802-1.368,4.106c-0.664,1.248-1.383,2.325-1.77,2.604c-0.143,0.103-0.248,0.315-0.299,0.555
			c-0.087,0.409-0.015,0.897,0.299,1.06c0.29,0.15,0.73,0.286,1.146,0.348c0.319,0.047,0.567,0.037,0.761-0.029
			c0.301-0.102,0.474-0.339,0.589-0.705c0.113-0.359,0.171-0.811,0.186-1.274c0-0.006,0-0.013,0.001-0.019
			c0.028-0.969,0.968-2.906,1.521-4.305c0.553-1.399,1.383-1.916,2.019-2.647c0.199-0.229,0.29-0.414,0.311-0.565
			c0.046-0.331-0.243-0.5-0.456-0.619c-0.296-0.164-0.722-0.075-1.167-0.195C9.35,5.178,9.088,5.098,8.807,5.162z"/>
		<path style="fill:#231F20;" d="M13.601,7.134c0.094-0.305,0.066-0.531,0.007-0.658c-0.129-0.276-0.685,0.064-0.92-0.019
			c-0.225-0.079-0.442-0.373-0.865-0.467c-0.37-0.082-0.491,0.261-0.552,0.476c-0.075,0.26-0.114,0.6-0.135,0.959
			c-0.096,1.613-0.642,3.125-1.118,4.692c-0.293,0.965-1.082,2.302-1.469,2.841c-0.113,0.157-0.143,0.32-0.12,0.479
			c0.058,0.386,0.44,0.74,0.748,0.877c0.169,0.075,0.386,0.148,0.614,0.195c0.255,0.053,0.522,0.075,0.75,0.035
			c0.262-0.046,0.471-0.175,0.546-0.435c0.074-0.257,0.083-0.624,0.102-1.071c0.01-0.248,0.024-0.521,0.054-0.813
			c0.122-1.205,1.094-5.338,1.786-6.134C13.348,7.721,13.519,7.398,13.601,7.134z"/>
		<path style="fill:#231F20;" d="M15.282,6.485c-0.28,0.057-0.455,0.074-0.717-0.038C14.31,6.338,14.1,6.219,13.978,6.6
			c-0.069,0.214-0.057,0.486-0.036,0.738c0.106,1.299-0.25,2.64-0.418,3.928c-0.332,2.552-0.719,3.324-0.885,3.54
			c-0.052,0.068-0.094,0.182-0.113,0.316c-0.043,0.29,0.018,0.669,0.291,0.846c0.154,0.1,0.455,0.161,0.787,0.194
			c0.245,0.024,0.507,0.033,0.74,0.03c0.27-0.003,0.5-0.023,0.618-0.051c0.214-0.051,0.368-0.401,0.399-0.748
			c0.021-0.235-0.015-0.469-0.127-0.608c-0.277-0.344-0.272-2.368-0.161-3.518c0.111-1.151,0.415-2.595,0.774-3.219
			c0.183-0.318,0.266-0.648,0.288-0.922c0.021-0.264-0.013-0.476-0.067-0.578C15.965,6.354,15.593,6.422,15.282,6.485z"/>
		<path style="fill:#231F20;" d="M18.506,10.389C18.4,9.524,18.502,7.639,18.696,7.25c0.037-0.074,0.058-0.152,0.066-0.233
			c0.037-0.343-0.147-0.724-0.256-0.95c-0.044-0.092-0.157-0.119-0.302-0.106c-0.166,0.014-0.375,0.08-0.568,0.16
			c-0.154,0.063-0.298,0.135-0.406,0.197c-0.292,0.169-0.603,0.396-0.803,0.741C16.1,7.623,16.515,7.841,16.71,8.36
			c0.243,0.648,0.254,1.361,0.253,2.03c-0.001,0.857-0.121,2.501-0.347,2.781c-0.056,0.07-0.096,0.177-0.122,0.301
			c-0.076,0.376-0.02,0.914,0.122,1.076c0.056,0.064,0.239,0.105,0.477,0.127c0.3,0.027,0.688,0.024,1.023-0.004
			c0.293-0.024,0.545-0.067,0.662-0.123c0.226-0.108,0.343-0.575,0.337-0.975c-0.004-0.236-0.05-0.449-0.142-0.553
			C18.726,12.74,18.613,11.255,18.506,10.389z"/>
		<path style="fill:#231F20;" d="M6.044,16.874c0.141-0.122,0.268-0.256,0.374-0.475c0.243-0.504-0.373-0.651-0.84-0.712
			c-0.391-0.051-0.665-0.171-1.039-0.257c-0.252-0.058-0.496-0.031-0.61,0.298c-0.076,0.219-0.13,0.439-0.183,0.688
			c-0.102,0.481-0.198,1.068-0.425,1.962c-0.374,1.469-1.005,2.127-1.198,2.5c-0.189,0.366,0.363,0.492,0.727,0.492
			c0.137,0,0.261,0.064,0.388,0.133c0.153,0.084,0.363,0.153,0.563,0.168c0.268,0.02,0.517-0.056,0.588-0.324
			c0.066-0.247-0.059-0.506-0.05-0.757c0.019-0.526,0.257-1.344,0.678-2.372C5.375,17.343,5.742,17.136,6.044,16.874z"/>
		<path style="fill:#231F20;" d="M9.692,16.64c-0.303-0.107-0.724-0.246-1.071-0.235c-0.264,0.008-0.485,0.102-0.581,0.36
			c-0.069,0.187-0.099,0.428-0.109,0.687c-0.01,0.253-0.001,0.523,0.008,0.776c0.055,1.485-0.857,3.616-1.244,3.982
			C6.57,22.327,6.48,22.502,6.43,22.681c-0.107,0.381-0.037,0.786,0.264,0.713c0.24-0.058,0.487-0.047,0.752,0.003
			c0.33,0.062,0.756,0.287,1.096,0.237c0.289-0.043,0.427-0.312,0.447-0.799c0.008-0.201-0.011-0.425-0.026-0.681
			c-0.035-0.596-0.048-1.365,0.359-2.419c0.453-1.173,0.837-1.629,0.998-2.053c0.046-0.121,0.073-0.239,0.08-0.371
			C10.414,16.997,10.097,16.784,9.692,16.64z"/>
		<path style="fill:#231F20;" d="M14.328,16.485c-0.302,0.059-0.532,0.042-0.727,0.006c-0.162-0.03-0.299-0.073-0.431-0.098
			c-0.117-0.022-0.229-0.029-0.352,0.001c-0.27,0.064-0.365,0.282-0.339,0.78c0.015,0.295,0.073,0.688,0.161,1.205
			c0.249,1.461-0.442,3.401-0.691,3.939c-0.029,0.063-0.045,0.122-0.05,0.178c-0.036,0.42,0.566,0.625,0.919,0.511
			c0.114-0.037,0.243-0.044,0.377-0.04c0.152,0.004,0.309,0.022,0.456,0.027c0.177,0.005,0.34-0.01,0.46-0.094
			c0.155-0.108,0.16-0.394,0.124-0.796c-0.036-0.401-0.113-0.916-0.124-1.485c-0.023-1.141,0.382-2.432,0.769-2.906
			c0.136-0.167,0.204-0.387,0.201-0.595C15.075,16.732,14.829,16.387,14.328,16.485z"/>
		<path style="fill:#231F20;" d="M18.336,14.93c-0.115,0.043-0.25,0.065-0.401,0.072c-0.141,0.007-0.296,0.001-0.461-0.012
			c-0.165-0.013-0.34-0.033-0.521-0.054c-0.294-0.034-0.416,0.097-0.416,0.348c0,0.221,0.095,0.535,0.25,0.909
			c0.186,0.446,0.415,2.058,0,2.661c-0.106,0.154-0.172,0.303-0.207,0.439c-0.102,0.397,0.063,0.678,0.29,0.61
			c0.099-0.03,0.211-0.056,0.333-0.073c0.122-0.017,0.254-0.024,0.397-0.018c0.152,0.007,0.314,0.03,0.487,0.075
			c0.34,0.088,0.422-0.205,0.378-0.572c-0.02-0.17-0.068-0.356-0.129-0.526c-0.194-0.538-0.332-2.195,0.17-2.596
			c0.235-0.187,0.285-0.503,0.239-0.773C18.692,15.112,18.513,14.864,18.336,14.93z"/>
		<path style="fill:#231F20;" d="M2.971,21.6c-0.182-0.027-0.356-0.04-0.468-0.053c-0.245-0.028-0.509-0.03-0.427,0.513
			c0.026,0.17,0.033,0.337,0.021,0.502c-0.04,0.547-0.293,1.075-0.81,1.629c-0.37,0.396-0.227,0.641,0.008,0.756
			c0.16,0.079,0.364,0.097,0.476,0.062c0.119-0.037,0.305,0.022,0.493,0.073c0.085,0.023,0.171,0.045,0.251,0.056
			c0.155,0.021,0.29,0.001,0.362-0.129c0.064-0.114,0.062-0.268,0.038-0.447c-0.047-0.363-0.177-0.829-0.011-1.275
			c0.176-0.472,0.532-0.815,0.716-1.051c0.076-0.098,0.122-0.177,0.114-0.24C3.704,21.753,3.322,21.652,2.971,21.6z"/>
		<path style="fill:#231F20;" d="M7.779,23.569c-0.246-0.053-0.526-0.068-0.771-0.048c-0.395,0.032-0.7,0.153-0.626,0.347
			c0.059,0.155,0.108,0.368,0.135,0.596c0.052,0.439,0.024,0.936-0.156,1.19c-0.156,0.219-0.351,0.534-0.325,0.735
			c0.021,0.155,0.173,0.243,0.575,0.169c0.143-0.026,0.29,0.041,0.424,0.1c0.083,0.037,0.162,0.07,0.232,0.077
			c0.094,0.009,0.173-0.031,0.229-0.177c0.071-0.183,0.051-0.376,0.031-0.575c-0.073-0.718,0.382-1.032,0.789-1.617
			c0.084-0.121,0.13-0.24,0.104-0.369C8.376,23.779,8.108,23.64,7.779,23.569z"/>
		<path style="fill:#231F20;" d="M13.557,23.146c-0.085-0.01-0.179-0.017-0.281-0.021c-0.226-0.009-0.488-0.005-0.762,0.01
			c-0.287,0.016-0.407,0.116-0.44,0.268c-0.058,0.267,0.146,0.694,0.179,1.109c0.041,0.53-0.071,1.192-0.21,1.729
			c-0.047,0.182-0.097,0.35-0.145,0.494c-0.131,0.39,0.125,0.459,0.451,0.449c0.147-0.004,0.309-0.024,0.456-0.037
			c0.444-0.04,1.063,0.008,0.858-0.569c-0.056-0.158-0.091-0.316-0.11-0.474c-0.093-0.781,0.214-1.564,0.397-2.319
			c0.047-0.193,0.046-0.322,0.046-0.446C13.995,23.24,13.825,23.178,13.557,23.146z"/>
		<path style="fill:#231F20;" d="M17.594,23.357c0.248-0.058,0.807,0.096,0.991-0.016c0.102-0.062,0.05-0.237-0.043-0.467
			c-0.272-0.676-0.348-1.225-0.206-1.929c0.04-0.197,0.083-0.378,0.11-0.521c0.037-0.191-0.095-0.297-0.306-0.354
			c-0.086-0.023-0.186-0.039-0.293-0.048c-0.221-0.019-0.473-0.014-0.701-0.005c-0.221,0.009-0.351,0.093-0.412,0.227
			c-0.106,0.234-0.002,0.616,0.191,0.998c0.084,0.166,0.15,0.464,0.162,0.777c0.01,0.262-0.018,0.536-0.107,0.752
			c-0.124,0.302,0.046,0.499,0.272,0.572C17.363,23.377,17.485,23.382,17.594,23.357z"/>
		<path style="fill:#231F20;" d="M2.372,25.412c-0.149-0.091-0.379-0.134-0.517-0.145c-0.108-0.008-0.262-0.031-0.417-0.036
			c-0.167-0.005-0.336,0.01-0.453,0.085C0.93,25.35,0.887,25.397,0.859,25.46c-0.067,0.157,0.071,0.387,0.114,0.644
			c0.05,0.297-0.369,0.8-0.387,1.154c-0.01,0.207,0.117,0.363,0.554,0.397c0.16,0.012,0.284,0.003,0.38-0.024
			c0.209-0.059,0.285-0.2,0.314-0.372c0.026-0.161,0.01-0.349,0.021-0.524c0.015-0.25,0.066-0.37,0.173-0.499
			C2.206,26.023,2.769,25.656,2.372,25.412z"/>
		<path style="fill:#231F20;" d="M6.998,26.946c-0.15-0.017-0.298-0.075-0.447-0.119c-0.165-0.049-0.33-0.08-0.499-0.016
			c-0.071,0.027-0.143,0.07-0.216,0.136c-0.242,0.219-0.027,0.657,0.09,1.051c0.082,0.276,0.115,0.529-0.09,0.671
			c-0.248,0.171-0.441,0.492-0.452,0.766c-0.012,0.276,0.161,0.504,0.649,0.483c0.176-0.008,0.312-0.033,0.418-0.072
			c0.251-0.092,0.325-0.261,0.333-0.448c0.007-0.169-0.039-0.354-0.06-0.513c-0.029-0.231,0.125-0.421,0.313-0.602
			c0.311-0.299,0.715-0.569,0.528-0.949C7.465,27.127,7.218,26.97,6.998,26.946z"/>
		<path style="fill:#231F20;" d="M12.927,27.205c-0.206,0.037-0.433,0.038-0.638,0.04c-0.275,0.003-0.509,0.009-0.593,0.11
			c-0.034,0.04-0.044,0.095-0.023,0.171c0.084,0.311,0.216,0.536,0.335,0.691c0.255,0.333,0.057,0.505-0.065,0.854
			c-0.068,0.196-0.039,0.349,0.366,0.349c0.17,0,0.304-0.018,0.411-0.05c0.266-0.08,0.35-0.248,0.342-0.442
			c-0.006-0.145-0.063-0.305-0.134-0.455c-0.098-0.206,0.047-0.36,0.22-0.504c0.245-0.203,0.549-0.387,0.31-0.667
			C13.376,27.208,13.214,27.153,12.927,27.205z"/>
		<path style="fill:#231F20;" d="M18.388,24.631c-0.109-0.344,0.279-0.566,0.142-0.88c-0.045-0.104-0.132-0.189-0.249-0.213
			c-0.095-0.02-0.22-0.031-0.347-0.031c-0.093,0-0.188,0.005-0.273,0.018c-0.135,0.02-0.247,0.057-0.292,0.116
			c-0.106,0.137-0.123,0.232-0.094,0.31c0.058,0.156,0.303,0.24,0.374,0.456c0.054,0.164,0.09,0.338,0.093,0.51
			c0.004,0.167-0.023,0.332-0.093,0.48c-0.057,0.121,0.132,0.206,0.363,0.228c0.145,0.014,0.307,0.004,0.434-0.038
			c0.173-0.056,0.281-0.17,0.195-0.358C18.533,24.993,18.44,24.794,18.388,24.631z"/>
	</g>
	<g style="opacity:0.3;">
		<path style="fill:#231F20;" d="M154.269,1.41c0.05,0.085,0.078,0.164,0.078,0.237c0,0.23-0.462,0.383-0.858,0.522
			c-0.147,0.052-0.298,0.106-0.433,0.177c-0.35,0.183-0.624,0.154-1.004-0.386c-0.151-0.214-0.343-0.4-0.541-0.557
			c-0.317-0.252-1.328-0.594-0.89-1.04c0.102-0.104,0.277-0.195,0.546-0.244c0.356-0.066,0.743-0.096,1.089-0.079
			c0.115,0.006,0.225,0.017,0.328,0.033c0.259,0.042,0.474,0.119,0.602,0.239c0.102,0.095,0.201,0.186,0.297,0.273
			C153.835,0.909,154.133,1.181,154.269,1.41z"/>
		<path style="fill:#231F20;" d="M148.199,3.056c-0.022-0.109-0.041-0.224-0.046-0.338c-0.032-0.82,0.735-0.744,1.517-0.757
			c-0.016-0.076,0.008-0.159,0.058-0.239c0.085-0.135,0.247-0.261,0.426-0.33c0.117-0.045,0.241-0.064,0.356-0.046
			c0.351,0.058,1.035,0.627,1.301,1.09c0.043,0.075,0.049,0.148,0.027,0.218c-0.118,0.375-1.026,0.684-1.328,0.908
			c-0.144,0.107-0.315,0.234-0.497,0.358c-0.278,0.189-0.584,0.372-0.86,0.467c-0.163,0.056-0.315,0.081-0.446,0.058
			C148.143,4.348,148.266,3.386,148.199,3.056z"/>
		<path style="fill:#231F20;" d="M154.74,0.071c0.833-0.031,1.85,0.039,2.556,0.417c0.425,0.227,0.53,0.495,0.757,0.753
			c0.136,0.156,0.29,0.203,0.427,0.258c0.369,0.148,0.418,0.358,0.317,0.563c-0.108,0.219-0.388,0.431-0.633,0.554
			c-0.195,0.097-0.544,0.25-0.864,0.335c-0.662,0.178-0.717-0.184-1.091-0.519c-0.217-0.195-0.507-0.419-0.859-0.676
			c-0.142-0.104-0.431-0.269-0.719-0.461c-0.269-0.18-0.538-0.385-0.684-0.586c-0.111-0.152-0.151-0.303-0.07-0.439
			C153.947,0.152,154.292,0.088,154.74,0.071z"/>
		<path style="fill:#231F20;" d="M155.26,5.801c-0.19,0.064-0.406,0.115-0.62,0.151c-0.248,0.041-0.496,0.062-0.704,0.06
			c-0.213-0.002-0.385-0.029-0.473-0.082c-0.229-0.138-0.224-0.495-0.243-1.052c-0.02-0.594-0.327-1.077-0.566-1.628
			c-0.165-0.379,0.244-0.507,0.643-0.592c0.234-0.05,0.553-0.237,0.923-0.352c0.374-0.116,0.684-0.054,0.914,0.109
			c0.199,0.141,0.337,0.358,0.403,0.6c0.072,0.265,0.084,0.631,0.122,0.972c0.035,0.313,0.092,0.605,0.237,0.78
			c0.108,0.13,0.139,0.27,0.107,0.407C155.943,5.424,155.671,5.662,155.26,5.801z"/>
		<path style="fill:#231F20;" d="M152.743,6.012c-0.179,0.025-0.603,0.083-1.082,0.144c-0.438,0.056-1.001,0.2-1.433,0.061
			c-0.254-0.082-0.385-0.246-0.56-0.394c-0.281-0.237-0.521-0.215-0.88-0.452c-0.238-0.157-0.265-0.294-0.182-0.413
			c0.099-0.141,0.353-0.257,0.595-0.351c0.188-0.073,0.368-0.132,0.463-0.179c0.403-0.201,0.739-0.476,1.095-0.726
			c0.237-0.167,0.482-0.323,0.761-0.438c0.246-0.102,0.485-0.145,0.67-0.066c0.334,0.142,0.445,0.502,0.503,0.855
			c0.065,0.395,0.154,0.755,0.267,1.143C153.064,5.555,153.111,5.96,152.743,6.012z"/>
		<path style="fill:#231F20;" d="M157.808,4.746c-0.123,0.111-0.315,0.215-0.534,0.294c-0.147,0.052-0.306,0.093-0.465,0.116
			c-0.312,0.044-0.545-0.141-0.69-0.376c-0.119-0.192-0.179-0.418-0.174-0.579c0.007-0.235,0.229-0.395,0.401-0.509
			c0.06-0.039,0.124-0.085,0.195-0.129c0.106-0.065,0.225-0.123,0.361-0.143c0.121-0.018,0.255-0.007,0.405,0.057
			c0.053,0.022,0.13,0.105,0.213,0.216c0.077,0.104,0.159,0.231,0.231,0.357c0.088,0.154,0.161,0.305,0.192,0.404
			C157.971,4.546,157.917,4.648,157.808,4.746z"/>
		<path style="fill:#231F20;" d="M164.109,7.114c-0.498-0.082-0.947,0.166-1.345,0.302c-0.388,0.132-0.481-0.095-0.556-0.345
			c-0.105-0.348-0.263-0.537-0.587-0.802c-0.629-0.516-1.203-1.014-2.014-1.361c-0.25-0.107-0.504-0.202-0.74-0.306
			c-0.558-0.245-1.011-0.538-1.049-1.139c-0.007-0.112-0.005-0.217-0.014-0.307c-0.046-0.5,1.098-0.736,1.562-0.712
			c0.51,0.026,0.959,0.419,1.459,0.942c0.31,0.325,0.64,0.7,1.016,1.068c0.174,0.171,0.357,0.362,0.54,0.557
			c0.572,0.608,1.15,1.247,1.506,1.394c0.155,0.064,0.289,0.172,0.38,0.286C164.453,6.92,164.461,7.172,164.109,7.114z"/>
		<path style="fill:#231F20;" d="M165.796,12.517c-0.182,0.103-0.485,0.167-0.774,0.162c-0.142-0.002-0.282-0.022-0.401-0.061
			c-0.163-0.054-0.29-0.145-0.34-0.282c-0.097-0.269-0.121-0.539-0.121-0.808c-0.001-0.658,0.134-1.311-0.338-1.938
			c-0.369-0.489-0.856-0.9-0.962-1.389c-0.049-0.224-0.017-0.465,0.143-0.737c0.059-0.101,0.372-0.194,0.694-0.236
			c0.236-0.03,0.477-0.033,0.626,0.009c0.372,0.106,0.573,0.504,0.588,0.781c0.006,0.117,0.045,0.31,0.104,0.543
			c0.201,0.794,0.631,2.056,0.781,2.405c0.104,0.242,0.183,0.62,0.189,0.945C165.989,12.194,165.937,12.437,165.796,12.517z"/>
		<path style="fill:#231F20;" d="M165.466,15.252c-0.231-0.251-0.255-0.532-0.258-0.777c-0.005-0.466-0.214-0.827-0.46-1.246
			c-0.103-0.176-0.186-0.323-0.197-0.389c-0.026-0.165,0.48-0.014,0.741-0.001c0.137,0.007,0.312-0.07,0.42-0.114
			c0.201-0.082,0.394-0.16,0.442-0.062c0.087,0.176,0.121,0.377,0.138,0.584c0.047,0.559,0.075,0.982,0.461,1.474
			c0.199,0.254,0.393,0.507,0.369,0.767c-0.019,0.206-0.161,0.284-0.356,0.289c-0.139,0.003-0.306-0.033-0.473-0.087
			C165.93,15.569,165.563,15.357,165.466,15.252z"/>
		<path style="fill:#231F20;" d="M158.319,5.197c0.431,0.098,0.643,0.475,0.753,0.781c0.1,0.278,0.155,0.606,0.212,0.99
			c0.211,1.401,0.675,2.802,1.368,4.106c0.664,1.248,1.383,2.325,1.77,2.604c0.143,0.103,0.248,0.315,0.299,0.555
			c0.087,0.409,0.015,0.897-0.299,1.06c-0.29,0.15-0.73,0.286-1.146,0.348c-0.319,0.047-0.567,0.037-0.761-0.029
			c-0.301-0.102-0.474-0.339-0.589-0.705c-0.113-0.359-0.171-0.811-0.186-1.274c0-0.006,0-0.013-0.001-0.019
			c-0.028-0.969-0.968-2.906-1.521-4.305c-0.553-1.399-1.383-1.916-2.019-2.647c-0.199-0.229-0.29-0.414-0.311-0.565
			c-0.046-0.331,0.243-0.5,0.456-0.619c0.296-0.164,0.722-0.075,1.167-0.195C157.775,5.213,158.037,5.133,158.319,5.197z"/>
		<path style="fill:#231F20;" d="M153.525,7.169c-0.094-0.305-0.066-0.531-0.007-0.658c0.129-0.276,0.685,0.064,0.92-0.019
			c0.225-0.079,0.442-0.373,0.865-0.467c0.37-0.082,0.491,0.261,0.552,0.476c0.075,0.26,0.114,0.6,0.135,0.959
			c0.096,1.613,0.642,3.125,1.118,4.692c0.293,0.965,1.082,2.302,1.469,2.841c0.113,0.157,0.143,0.32,0.12,0.479
			c-0.058,0.386-0.44,0.74-0.748,0.877c-0.169,0.075-0.386,0.148-0.614,0.195c-0.255,0.053-0.522,0.075-0.75,0.035
			c-0.262-0.046-0.471-0.175-0.546-0.435c-0.074-0.257-0.083-0.624-0.102-1.071c-0.01-0.248-0.024-0.521-0.054-0.813
			c-0.122-1.205-1.094-5.338-1.786-6.134C153.778,7.756,153.606,7.433,153.525,7.169z"/>
		<path style="fill:#231F20;" d="M151.843,6.52c0.28,0.057,0.455,0.074,0.717-0.038c0.256-0.109,0.465-0.228,0.587,0.153
			c0.069,0.214,0.057,0.486,0.036,0.738c-0.106,1.299,0.25,2.64,0.418,3.928c0.332,2.552,0.719,3.324,0.885,3.54
			c0.052,0.068,0.094,0.182,0.113,0.316c0.043,0.29-0.018,0.669-0.291,0.846c-0.154,0.1-0.455,0.161-0.787,0.194
			c-0.245,0.024-0.507,0.033-0.74,0.03c-0.27-0.003-0.5-0.023-0.618-0.051c-0.214-0.051-0.368-0.401-0.398-0.748
			c-0.021-0.235,0.015-0.469,0.127-0.608c0.277-0.344,0.272-2.368,0.161-3.518s-0.415-2.595-0.774-3.219
			c-0.183-0.318-0.266-0.648-0.288-0.922c-0.021-0.264,0.013-0.476,0.067-0.578C151.16,6.389,151.533,6.457,151.843,6.52z"/>
		<path style="fill:#231F20;" d="M148.619,10.425c0.106-0.865,0.004-2.751-0.189-3.139c-0.037-0.074-0.058-0.152-0.066-0.233
			c-0.037-0.343,0.147-0.724,0.256-0.95c0.044-0.092,0.157-0.119,0.302-0.106c0.166,0.014,0.375,0.08,0.568,0.16
			c0.154,0.063,0.298,0.135,0.406,0.197c0.292,0.169,0.603,0.396,0.803,0.741c0.327,0.564-0.088,0.782-0.284,1.301
			c-0.243,0.648-0.254,1.361-0.253,2.03c0.001,0.857,0.121,2.501,0.347,2.781c0.056,0.07,0.096,0.177,0.122,0.301
			c0.076,0.376,0.02,0.914-0.122,1.076c-0.056,0.064-0.239,0.105-0.477,0.127c-0.3,0.027-0.688,0.024-1.023-0.004
			c-0.293-0.024-0.545-0.067-0.662-0.123c-0.226-0.108-0.343-0.575-0.337-0.975c0.004-0.236,0.05-0.449,0.142-0.553
			C148.399,12.775,148.512,11.29,148.619,10.425z"/>
		<path style="fill:#231F20;" d="M161.082,16.909c-0.141-0.122-0.268-0.256-0.374-0.475c-0.243-0.504,0.373-0.651,0.84-0.712
			c0.391-0.051,0.665-0.171,1.039-0.257c0.252-0.058,0.496-0.031,0.61,0.298c0.076,0.219,0.13,0.439,0.183,0.688
			c0.102,0.481,0.198,1.068,0.425,1.962c0.374,1.469,1.005,2.127,1.198,2.5c0.189,0.366-0.363,0.492-0.727,0.492
			c-0.137,0-0.261,0.064-0.388,0.133c-0.153,0.084-0.363,0.153-0.563,0.168c-0.268,0.02-0.517-0.056-0.588-0.324
			c-0.066-0.247,0.059-0.506,0.05-0.757c-0.019-0.526-0.257-1.344-0.678-2.372C161.75,17.378,161.384,17.171,161.082,16.909z"/>
		<path style="fill:#231F20;" d="M157.433,16.676c0.303-0.107,0.724-0.246,1.071-0.235c0.264,0.008,0.485,0.102,0.581,0.36
			c0.069,0.187,0.099,0.428,0.109,0.687c0.01,0.253,0.001,0.523-0.008,0.776c-0.055,1.485,0.857,3.616,1.244,3.982
			c0.124,0.117,0.214,0.292,0.264,0.471c0.107,0.381,0.037,0.786-0.264,0.713c-0.24-0.058-0.487-0.047-0.752,0.003
			c-0.33,0.062-0.756,0.287-1.096,0.237c-0.289-0.043-0.427-0.312-0.447-0.799c-0.008-0.201,0.011-0.425,0.026-0.681
			c0.035-0.596,0.048-1.365-0.359-2.419c-0.453-1.173-0.837-1.629-0.998-2.053c-0.046-0.121-0.073-0.239-0.08-0.371
			C156.711,17.032,157.028,16.819,157.433,16.676z"/>
		<path style="fill:#231F20;" d="M152.797,16.52c0.302,0.059,0.532,0.042,0.727,0.006c0.162-0.03,0.299-0.073,0.431-0.098
			c0.117-0.022,0.229-0.029,0.352,0.001c0.27,0.064,0.365,0.282,0.339,0.78c-0.015,0.295-0.073,0.688-0.161,1.205
			c-0.249,1.461,0.442,3.401,0.691,3.939c0.029,0.063,0.045,0.122,0.05,0.178c0.036,0.42-0.566,0.625-0.919,0.511
			c-0.114-0.037-0.243-0.044-0.377-0.04c-0.152,0.004-0.309,0.022-0.456,0.027c-0.177,0.005-0.34-0.01-0.46-0.094
			c-0.155-0.108-0.16-0.394-0.124-0.796c0.036-0.401,0.113-0.916,0.124-1.485c0.023-1.141-0.382-2.432-0.769-2.906
			c-0.136-0.167-0.204-0.387-0.201-0.595C152.05,16.768,152.296,16.423,152.797,16.52z"/>
		<path style="fill:#231F20;" d="M148.789,14.965c0.115,0.043,0.25,0.065,0.401,0.072c0.141,0.007,0.296,0.001,0.461-0.012
			c0.165-0.013,0.34-0.033,0.521-0.054c0.294-0.034,0.416,0.097,0.416,0.348c0,0.221-0.095,0.535-0.25,0.909
			c-0.186,0.446-0.415,2.058,0,2.661c0.106,0.154,0.172,0.303,0.207,0.439c0.102,0.397-0.063,0.678-0.29,0.61
			c-0.099-0.03-0.211-0.056-0.333-0.073c-0.122-0.017-0.254-0.024-0.397-0.018c-0.152,0.007-0.314,0.03-0.487,0.075
			c-0.34,0.088-0.422-0.205-0.378-0.572c0.02-0.17,0.068-0.356,0.129-0.526c0.194-0.538,0.332-2.195-0.17-2.596
			c-0.235-0.187-0.285-0.503-0.239-0.773C148.434,15.147,148.612,14.899,148.789,14.965z"/>
		<path style="fill:#231F20;" d="M164.154,21.636c0.182-0.027,0.356-0.04,0.468-0.053c0.245-0.028,0.509-0.03,0.427,0.513
			c-0.026,0.17-0.033,0.337-0.021,0.502c0.04,0.547,0.293,1.075,0.81,1.629c0.37,0.396,0.227,0.641-0.008,0.756
			c-0.16,0.079-0.364,0.097-0.476,0.062c-0.119-0.037-0.305,0.022-0.493,0.073c-0.085,0.023-0.171,0.045-0.251,0.056
			c-0.155,0.021-0.29,0.001-0.362-0.129c-0.064-0.114-0.062-0.268-0.038-0.447c0.047-0.363,0.178-0.829,0.011-1.275
			c-0.176-0.472-0.532-0.815-0.716-1.051c-0.076-0.098-0.122-0.177-0.114-0.24C163.421,21.788,163.803,21.687,164.154,21.636z"/>
		<path style="fill:#231F20;" d="M159.346,23.604c0.246-0.053,0.526-0.068,0.771-0.048c0.395,0.032,0.7,0.153,0.626,0.347
			c-0.059,0.155-0.108,0.368-0.135,0.596c-0.052,0.439-0.024,0.936,0.156,1.19c0.156,0.219,0.351,0.534,0.325,0.735
			c-0.021,0.155-0.173,0.243-0.575,0.169c-0.143-0.026-0.29,0.041-0.424,0.1c-0.083,0.037-0.162,0.07-0.232,0.077
			c-0.094,0.009-0.173-0.031-0.229-0.177c-0.071-0.183-0.051-0.376-0.031-0.575c0.073-0.718-0.382-1.032-0.789-1.617
			c-0.084-0.121-0.13-0.24-0.104-0.369C158.749,23.815,159.017,23.675,159.346,23.604z"/>
		<path style="fill:#231F20;" d="M153.568,23.182c0.085-0.01,0.179-0.017,0.281-0.021c0.226-0.009,0.488-0.005,0.762,0.01
			c0.287,0.016,0.407,0.116,0.44,0.268c0.058,0.267-0.146,0.694-0.179,1.109c-0.041,0.53,0.071,1.192,0.21,1.729
			c0.047,0.182,0.097,0.35,0.145,0.494c0.131,0.39-0.125,0.459-0.451,0.449c-0.147-0.004-0.309-0.024-0.456-0.037
			c-0.444-0.04-1.063,0.008-0.858-0.569c0.056-0.158,0.091-0.316,0.11-0.474c0.093-0.781-0.214-1.564-0.397-2.319
			c-0.047-0.193-0.046-0.322-0.046-0.446C153.131,23.275,153.301,23.213,153.568,23.182z"/>
		<path style="fill:#231F20;" d="M149.531,23.392c-0.248-0.058-0.807,0.096-0.991-0.016c-0.102-0.062-0.05-0.237,0.043-0.467
			c0.272-0.676,0.348-1.225,0.206-1.929c-0.04-0.197-0.083-0.378-0.11-0.521c-0.037-0.191,0.095-0.297,0.306-0.354
			c0.086-0.023,0.186-0.039,0.293-0.048c0.221-0.019,0.473-0.014,0.701-0.005c0.221,0.009,0.351,0.093,0.412,0.227
			c0.106,0.234,0.002,0.616-0.191,0.998c-0.084,0.166-0.15,0.464-0.162,0.777c-0.01,0.262,0.018,0.536,0.107,0.752
			c0.124,0.302-0.046,0.499-0.272,0.572C149.762,23.412,149.64,23.417,149.531,23.392z"/>
		<path style="fill:#231F20;" d="M164.753,25.447c0.149-0.091,0.379-0.134,0.517-0.145c0.108-0.008,0.262-0.031,0.417-0.036
			c0.167-0.005,0.336,0.01,0.453,0.085c0.054,0.035,0.097,0.082,0.125,0.145c0.067,0.157-0.071,0.387-0.114,0.644
			c-0.05,0.297,0.369,0.8,0.387,1.154c0.01,0.207-0.117,0.363-0.554,0.397c-0.16,0.012-0.284,0.003-0.38-0.024
			c-0.209-0.059-0.285-0.2-0.313-0.372c-0.026-0.161-0.01-0.349-0.021-0.524c-0.015-0.25-0.066-0.37-0.173-0.499
			C164.919,26.058,164.356,25.691,164.753,25.447z"/>
		<path style="fill:#231F20;" d="M160.127,26.981c0.15-0.017,0.298-0.075,0.447-0.119c0.165-0.049,0.33-0.08,0.499-0.016
			c0.071,0.027,0.143,0.07,0.216,0.136c0.242,0.219,0.027,0.657-0.09,1.051c-0.082,0.276-0.115,0.529,0.09,0.671
			c0.248,0.171,0.441,0.492,0.452,0.766c0.012,0.276-0.161,0.504-0.649,0.483c-0.176-0.008-0.312-0.033-0.418-0.072
			c-0.251-0.092-0.325-0.261-0.333-0.448c-0.007-0.169,0.039-0.354,0.06-0.513c0.029-0.231-0.125-0.421-0.313-0.602
			c-0.311-0.299-0.715-0.569-0.528-0.949C159.66,27.162,159.907,27.005,160.127,26.981z"/>
		<path style="fill:#231F20;" d="M154.199,27.24c0.206,0.037,0.433,0.038,0.638,0.04c0.275,0.003,0.509,0.009,0.593,0.11
			c0.034,0.04,0.044,0.095,0.023,0.171c-0.084,0.311-0.216,0.536-0.335,0.691c-0.255,0.333-0.057,0.505,0.065,0.854
			c0.068,0.196,0.039,0.349-0.366,0.349c-0.17,0-0.304-0.018-0.411-0.05c-0.266-0.08-0.35-0.248-0.342-0.442
			c0.006-0.145,0.063-0.305,0.134-0.455c0.098-0.206-0.047-0.36-0.22-0.504c-0.245-0.203-0.549-0.387-0.31-0.667
			C153.749,27.243,153.911,27.188,154.199,27.24z"/>
		<path style="fill:#231F20;" d="M148.737,24.666c0.109-0.344-0.279-0.566-0.142-0.88c0.045-0.104,0.132-0.189,0.249-0.213
			c0.095-0.02,0.22-0.031,0.347-0.031c0.093,0,0.188,0.005,0.273,0.018c0.135,0.02,0.247,0.057,0.292,0.116
			c0.106,0.137,0.123,0.232,0.094,0.31c-0.058,0.156-0.303,0.24-0.374,0.456c-0.054,0.164-0.09,0.338-0.093,0.51
			c-0.004,0.167,0.023,0.332,0.093,0.48c0.057,0.121-0.132,0.206-0.363,0.228c-0.145,0.014-0.307,0.004-0.434-0.038
			c-0.173-0.056-0.281-0.17-0.195-0.358C148.593,25.028,148.685,24.829,148.737,24.666z"/>
	</g>
</g>
</svg>
